<?xml version="1.0" encoding="UTF-8"?>
<svg xmlns="http://www.w3.org/2000/svg" xmlns:xlink="http://www.w3.org/1999/xlink" width="442.5" height="375" viewBox="0 0 442.5 375">
<defs>
<clipPath id="clip-0">
<path clip-rule="nonzero" d="M 411 327 L 442.5 327 L 442.5 375 L 411 375 Z M 411 327 "/>
</clipPath>
</defs>
<path fill-rule="nonzero" fill="rgb(70.587158%, 70.587158%, 70.979309%)" fill-opacity="1" d="M 23.398438 288.824219 L 9.226562 288.824219 L 9.226562 277.351562 L 24.074219 277.351562 L 24.074219 270.074219 L 0.898438 270.074219 L 0.898438 316.5 L 9.226562 316.5 L 9.226562 296.175781 L 23.398438 296.175781 Z M 23.398438 288.824219 "/>
<path fill-rule="nonzero" fill="rgb(70.587158%, 70.587158%, 70.979309%)" fill-opacity="1" d="M 36.449219 293.175781 C 36.449219 285 39.898438 276.601562 48.148438 276.601562 C 56.476562 276.601562 59.851562 285 59.851562 293.175781 C 59.851562 301.574219 56.699219 310.050781 48.148438 310.050781 C 39.601562 310.050781 36.449219 301.574219 36.449219 293.175781 M 27.675781 293.175781 C 27.675781 307.425781 34.726562 317.324219 48.148438 317.324219 C 61.351562 317.324219 68.625 307.199219 68.625 293.175781 C 68.625 279.148438 61.273438 269.25 48.148438 269.25 C 34.875 269.25 27.675781 278.925781 27.675781 293.175781 Z M 27.675781 293.175781 "/>
<path fill-rule="nonzero" fill="rgb(70.587158%, 70.587158%, 70.979309%)" fill-opacity="1" d="M 99 316.5 L 109.199219 316.5 L 109.199219 270.074219 L 101.175781 270.074219 L 101.175781 304.800781 L 101.101562 304.800781 L 85.125 270.074219 L 74.851562 270.074219 L 74.851562 316.5 L 82.875 316.5 L 82.875 281.773438 L 83.023438 281.773438 Z M 99 316.5 "/>
<path fill-rule="nonzero" fill="rgb(70.587158%, 70.587158%, 70.979309%)" fill-opacity="1" d="M 125.851562 277.351562 L 130.5 277.351562 C 137.476562 277.351562 144.300781 283.125 144.300781 293.25 C 144.300781 303.375 137.550781 309.148438 130.5 309.148438 L 125.851562 309.148438 Z M 117.449219 316.5 L 128.851562 316.5 C 141.675781 316.5 153 311.699219 153 293.25 C 153 274.800781 141.675781 270 128.851562 270 L 117.449219 270 Z M 117.449219 316.5 "/>
<path fill-rule="nonzero" fill="rgb(70.587158%, 70.587158%, 70.979309%)" fill-opacity="1" d="M 155.324219 316.5 L 164.023438 316.5 L 167.699219 305.851562 L 184.648438 305.851562 L 188.25 316.5 L 197.550781 316.5 L 181.125 270 L 171.675781 270 Z M 182.25 298.574219 L 170.023438 298.574219 L 176.101562 279.375 L 176.25 279.375 Z M 182.25 298.574219 "/>
<path fill-rule="nonzero" fill="rgb(70.587158%, 70.587158%, 70.979309%)" fill-opacity="1" d="M 227.625 277.648438 L 227.625 270.074219 L 199.875 270.074219 L 199.875 277.351562 L 218.699219 277.351562 L 199.125 308.925781 L 199.125 316.5 L 228.074219 316.5 L 228.074219 309.226562 L 207.824219 309.226562 Z M 227.625 277.648438 "/>
<path fill-rule="nonzero" fill="rgb(70.587158%, 70.587158%, 70.979309%)" fill-opacity="1" d="M 233.324219 270.074219 L 241.726562 270.074219 L 241.726562 316.574219 L 233.324219 316.574219 Z M 233.324219 270.074219 "/>
<path fill-rule="nonzero" fill="rgb(70.587158%, 70.587158%, 70.979309%)" fill-opacity="1" d="M 256.351562 293.175781 C 256.351562 285 259.800781 276.601562 268.050781 276.601562 C 276.375 276.601562 279.75 285 279.75 293.175781 C 279.75 301.574219 276.601562 310.050781 268.050781 310.050781 C 259.5 310.050781 256.351562 301.574219 256.351562 293.175781 M 247.574219 293.175781 C 247.574219 307.425781 254.625 317.324219 268.050781 317.324219 C 281.25 317.324219 288.523438 307.199219 288.523438 293.175781 C 288.523438 279.148438 281.175781 269.25 268.050781 269.25 C 254.773438 269.25 247.574219 278.925781 247.574219 293.175781 Z M 247.574219 293.175781 "/>
<path fill-rule="nonzero" fill="rgb(70.587158%, 70.587158%, 70.979309%)" fill-opacity="1" d="M 318.824219 316.5 L 329.101562 316.5 L 329.101562 270.074219 L 321.074219 270.074219 L 321.074219 304.800781 L 320.925781 304.800781 L 305.023438 270.074219 L 294.75 270.074219 L 294.75 316.5 L 302.699219 316.5 L 302.699219 281.773438 L 302.851562 281.773438 Z M 318.824219 316.5 "/>
<path fill-rule="nonzero" fill="rgb(70.587158%, 70.587158%, 70.979309%)" fill-opacity="1" d="M 345.675781 296.175781 L 360.601562 296.175781 L 360.601562 288.824219 L 345.675781 288.824219 L 345.675781 277.351562 L 361.949219 277.351562 L 361.949219 270.074219 L 337.273438 270.074219 L 337.273438 316.5 L 362.101562 316.5 L 362.101562 309.226562 L 345.675781 309.226562 Z M 345.675781 296.175781 "/>
<path fill-rule="nonzero" fill="rgb(70.587158%, 70.587158%, 70.979309%)" fill-opacity="1" d="M 0.898438 374.175781 L 15.523438 374.175781 C 20.773438 374.175781 30.226562 372.449219 30.226562 360.75 C 30.226562 355.050781 26.324219 350.773438 20.625 350.175781 L 20.625 350.023438 C 25.574219 349.050781 28.949219 345.148438 28.949219 339.675781 C 28.949219 329.476562 20.851562 327.75 15.449219 327.75 L 0.898438 327.75 Z M 9.226562 335.023438 L 12.449219 335.023438 C 16.273438 335.023438 20.550781 335.398438 20.550781 340.800781 C 20.550781 345.601562 16.199219 346.425781 12.675781 346.425781 L 9.226562 346.425781 Z M 9.226562 353.398438 L 13.199219 353.398438 C 17.398438 353.398438 21.824219 354.300781 21.824219 360.375 C 21.824219 365.773438 17.101562 366.824219 13.199219 366.824219 L 9.226562 366.824219 Z M 9.226562 353.398438 "/>
<path fill-rule="nonzero" fill="rgb(70.587158%, 70.587158%, 70.979309%)" fill-opacity="1" d="M 35.699219 374.175781 L 44.023438 374.175781 L 44.023438 354.898438 L 46.726562 354.898438 C 50.25 354.898438 51.300781 356.25 52.5 359.699219 L 57.523438 374.175781 L 66.824219 374.175781 L 60.148438 356.023438 C 59.324219 354 57.976562 351.449219 55.726562 351.226562 L 55.726562 351.074219 C 61.050781 350.25 64.351562 345.75 64.351562 340.273438 C 64.351562 327.375 53.625 327.675781 44.625 327.675781 L 35.699219 327.675781 Z M 44.023438 335.023438 L 46.800781 335.023438 C 51 335.023438 55.648438 335.476562 55.648438 341.101562 C 55.648438 346.875 50.925781 347.550781 46.800781 347.550781 L 44.023438 347.550781 Z M 44.023438 335.023438 "/>
<path fill-rule="nonzero" fill="rgb(70.587158%, 70.587158%, 70.979309%)" fill-opacity="1" d="M 71.625 357.375 C 71.625 369.824219 78 374.925781 88.648438 374.925781 C 99.375 374.925781 105.675781 369.824219 105.675781 357.375 L 105.675781 327.675781 L 97.273438 327.675781 L 97.273438 354.523438 C 97.273438 362.476562 95.023438 367.648438 88.574219 367.648438 C 82.199219 367.648438 79.875 362.476562 79.875 354.523438 L 79.875 327.675781 L 71.476562 327.675781 L 71.476562 357.375 Z M 71.625 357.375 "/>
<path fill-rule="nonzero" fill="rgb(70.587158%, 70.587158%, 70.979309%)" fill-opacity="1" d="M 137.773438 374.175781 L 148.050781 374.175781 L 148.050781 327.675781 L 140.023438 327.675781 L 140.023438 362.476562 L 139.875 362.476562 L 123.976562 327.675781 L 113.699219 327.675781 L 113.699219 374.175781 L 121.726562 374.175781 L 121.726562 339.449219 L 121.800781 339.449219 Z M 137.773438 374.175781 "/>
<path fill-rule="nonzero" fill="rgb(70.587158%, 70.587158%, 70.979309%)" fill-opacity="1" d="M 162.976562 350.773438 C 162.976562 342.601562 166.351562 334.199219 174.675781 334.199219 C 183 334.199219 186.375 342.601562 186.375 350.773438 C 186.375 359.175781 183.226562 367.648438 174.675781 367.648438 C 166.125 367.648438 162.976562 359.175781 162.976562 350.773438 M 154.199219 350.773438 C 154.199219 365.023438 161.25 374.925781 174.675781 374.925781 C 187.875 374.925781 195.148438 364.800781 195.148438 350.773438 C 195.148438 336.75 187.800781 326.851562 174.675781 326.851562 C 161.398438 326.925781 154.199219 336.523438 154.199219 350.773438 Z M 154.199219 350.773438 "/>
<path fill-rule="nonzero" fill="rgb(70.587158%, 70.587158%, 70.979309%)" fill-opacity="1" d="M 238.800781 374.175781 L 249.75 374.175781 L 231.898438 349.574219 L 249.074219 327.675781 L 238.800781 327.675781 L 223.726562 347.699219 L 223.726562 327.675781 L 215.324219 327.675781 L 215.324219 374.175781 L 223.726562 374.175781 L 223.726562 352.574219 L 223.800781 352.574219 Z M 238.800781 374.175781 "/>
<path fill-rule="nonzero" fill="rgb(70.587158%, 70.587158%, 70.979309%)" fill-opacity="1" d="M 262.574219 353.773438 L 277.5 353.773438 L 277.5 346.5 L 262.574219 346.5 L 262.574219 335.023438 L 278.851562 335.023438 L 278.851562 327.675781 L 254.175781 327.675781 L 254.175781 374.175781 L 279 374.175781 L 279 366.824219 L 262.574219 366.824219 Z M 262.574219 353.773438 "/>
<path fill-rule="nonzero" fill="rgb(70.587158%, 70.587158%, 70.979309%)" fill-opacity="1" d="M 309.675781 328.574219 C 306.601562 327.449219 303.300781 326.925781 299.699219 326.925781 C 292.351562 326.925781 285.074219 330.75 285.074219 341.101562 C 285.074219 356.476562 303.375 352.800781 303.375 361.648438 C 303.375 365.851562 299.101562 367.648438 295.949219 367.648438 C 292.648438 367.648438 289.351562 366.523438 286.5 364.800781 L 285.75 373.199219 C 289.875 374.324219 291.898438 375 296.476562 375 C 304.949219 375 312.148438 371.175781 312.148438 360.976562 C 312.148438 345.375 293.851562 348.824219 293.851562 340.726562 C 293.851562 335.699219 297.601562 334.273438 300.449219 334.273438 C 303.375 334.273438 306.300781 335.023438 308.925781 336.300781 Z M 309.675781 328.574219 "/>
<path fill-rule="nonzero" fill="rgb(70.587158%, 70.587158%, 70.979309%)" fill-opacity="1" d="M 341.851562 328.574219 C 338.773438 327.449219 335.476562 326.925781 331.875 326.925781 C 324.523438 326.925781 317.25 330.75 317.25 341.101562 C 317.25 356.476562 335.550781 352.800781 335.550781 361.648438 C 335.550781 365.851562 331.273438 367.648438 328.125 367.648438 C 324.824219 367.648438 321.523438 366.523438 318.675781 364.800781 L 317.925781 373.199219 C 322.050781 374.324219 324.074219 375 328.648438 375 C 337.125 375 344.324219 371.175781 344.324219 360.976562 C 344.324219 345.375 326.023438 348.824219 326.023438 340.726562 C 326.023438 335.699219 329.699219 334.273438 332.625 334.273438 C 335.550781 334.273438 338.476562 335.023438 341.101562 336.300781 Z M 341.851562 328.574219 "/>
<path fill-rule="nonzero" fill="rgb(70.587158%, 70.587158%, 70.979309%)" fill-opacity="1" d="M 359.25 327.675781 L 350.851562 327.675781 L 350.851562 374.175781 L 375.523438 374.175781 L 375.523438 366.824219 L 359.25 366.824219 Z M 359.25 327.675781 "/>
<path fill-rule="nonzero" fill="rgb(70.587158%, 70.587158%, 70.979309%)" fill-opacity="1" d="M 388.125 353.773438 L 403.050781 353.773438 L 403.050781 346.5 L 388.125 346.5 L 388.125 335.023438 L 404.398438 335.023438 L 404.398438 327.675781 L 379.800781 327.675781 L 379.800781 374.175781 L 404.550781 374.175781 L 404.550781 366.824219 L 388.125 366.824219 Z M 388.125 353.773438 "/>
<g clip-path="url(#clip-0)">
<path fill-rule="nonzero" fill="rgb(70.587158%, 70.587158%, 70.979309%)" fill-opacity="1" d="M 411.300781 374.175781 L 419.699219 374.175781 L 419.699219 354.898438 L 422.398438 354.898438 C 425.925781 354.898438 426.976562 356.25 428.175781 359.699219 L 433.199219 374.175781 L 442.5 374.175781 L 435.824219 356.023438 C 435 354 433.648438 351.449219 431.398438 351.226562 L 431.398438 351.074219 C 436.726562 350.25 440.023438 345.75 440.023438 340.273438 C 440.023438 327.375 429.300781 327.675781 420.300781 327.675781 L 411.226562 327.675781 L 411.226562 374.175781 Z M 419.699219 335.023438 L 422.476562 335.023438 C 426.675781 335.023438 431.324219 335.476562 431.324219 341.101562 C 431.324219 346.875 426.601562 347.550781 422.476562 347.550781 L 419.699219 347.550781 Z M 419.699219 335.023438 "/>
</g>
<path fill-rule="evenodd" fill="rgb(0%, 35.68573%, 67.0578%)" fill-opacity="1" d="M 0 0 L 114.898438 0 L 114.898438 36.976562 L 0 36.976562 Z M 0 0 "/>
<path fill-rule="evenodd" fill="rgb(0%, 35.68573%, 67.0578%)" fill-opacity="1" d="M 0 94.875 L 114.898438 94.875 L 114.898438 131.851562 L 0 131.851562 Z M 0 94.875 "/>
<path fill-rule="evenodd" fill="rgb(0%, 35.68573%, 67.0578%)" fill-opacity="1" d="M 154.648438 94.875 L 205.351562 94.875 C 242.773438 94.875 273.449219 125.476562 273.449219 162.976562 C 273.449219 200.398438 242.851562 231.074219 205.351562 231.074219 L 154.648438 231.074219 L 154.648438 194.175781 L 205.273438 194.175781 C 222.449219 194.175781 236.476562 180.148438 236.476562 162.976562 C 236.476562 145.800781 222.449219 131.773438 205.273438 131.773438 L 154.648438 131.773438 Z M 154.648438 94.875 "/>
<path fill-rule="evenodd" fill="rgb(0%, 35.68573%, 67.0578%)" fill-opacity="1" d="M 291.824219 136.050781 L 291.824219 94.875 L 388.425781 0 L 440.101562 0 L 322.574219 115.5 L 440.101562 231 L 388.425781 231 Z M 291.824219 136.050781 "/>
</svg>
